<svg width="33" height="33" viewBox="0 0 33 33" fill="none" xmlns="http://www.w3.org/2000/svg">
<g clip-path="url(#clip0_3_18)">
<path d="M16.5 0C16.2938 0 16.072 0.0350257 15.9225 0.120087L1.5675 5.04365C0.938438 5.35888 0.938438 5.82422 1.5675 6.16447L15.9225 11.9286C16.0875 12.0487 16.8713 12.0637 17.0775 11.9286L31.4325 6.16447C31.9842 5.89928 31.9584 5.35888 31.4325 5.04365L17.0775 0.120087C16.9022 0.0350257 16.7063 0 16.5 0ZM16.4175 4.2831C17.1188 4.2781 17.7942 4.37817 18.315 4.56331C19.1761 4.87353 19.2998 5.28883 19.305 5.524C19.3102 5.75417 19.2277 6.16947 18.3975 6.4847C17.8664 6.68985 17.1239 6.80493 16.3763 6.80493C15.6544 6.80493 14.9944 6.71487 14.4788 6.52473C13.6486 6.21951 13.53 5.7942 13.53 5.56403C13.53 5.33387 13.6383 4.87854 14.4788 4.56331C14.9944 4.36817 15.7163 4.28811 16.4175 4.2831ZM0.53625 7.68557C0.221719 7.66055 0 7.83568 0 8.16592V24.3777C0 24.818 0.381563 25.3534 0.86625 25.5785L14.9738 32.9038C15.4636 33.129 15.84 32.9439 15.84 32.5036V14.7307C15.84 14.2904 15.4636 13.755 14.9738 13.5298L0.86625 7.76563C0.7425 7.71059 0.639375 7.69558 0.53625 7.68557ZM32.4638 7.68557C32.3606 7.69558 32.2575 7.71059 32.1338 7.76563L18.0263 13.5298C17.5364 13.755 17.16 14.2904 17.16 14.7307V32.5036C17.16 32.9439 17.5364 33.129 18.0263 32.9038L32.1338 25.5785C32.6184 25.3534 33 24.818 33 24.3777V8.16592C33 7.83568 32.7783 7.66055 32.4638 7.68557ZM11.385 13.9301C11.6325 13.9301 11.9109 14.0202 12.1688 14.1302C13.3341 14.6206 14.2313 16.0166 14.2313 17.3326C14.2313 17.8479 14.0869 18.2933 13.8188 18.6135C13.5403 18.9437 13.1484 19.1339 12.705 19.1339C12.442 19.1339 12.1997 19.0588 11.9213 18.9337C10.7817 18.4234 9.85875 17.0173 9.85875 15.7314C9.85875 14.6856 10.4827 13.9301 11.385 13.9301ZM23.43 15.3711C24.3169 15.3711 24.915 16.0917 24.915 17.1324C24.915 18.4033 24.0488 19.7793 22.935 20.2947C22.6566 20.4248 22.373 20.4949 22.11 20.4949C21.2231 20.4949 20.625 19.7743 20.625 18.7336C20.625 17.4376 21.5119 16.0266 22.6463 15.5313C22.9092 15.4162 23.1773 15.3711 23.43 15.3711ZM6.88875 17.1724C7.13625 17.1724 7.40953 17.2525 7.6725 17.3726C8.77594 17.873 9.6525 19.254 9.6525 20.5349C9.6525 21.0302 9.4875 21.4706 9.24 21.7758C8.98219 22.091 8.63156 22.2561 8.20875 22.2561C7.94578 22.2561 7.66219 22.1861 7.38375 22.056C6.30609 21.5406 5.445 20.1446 5.445 18.8937C5.445 17.8629 6.02766 17.1724 6.88875 17.1724ZM28.6688 19.0938C29.4989 19.0938 30.0713 19.7743 30.0713 20.7751C30.0713 22.0059 29.2153 23.3769 28.1738 23.8973C27.8953 24.0374 27.653 24.0975 27.39 24.0975C26.565 24.0975 25.9875 23.457 25.9875 22.4563C25.9875 21.2004 26.8177 19.7993 27.885 19.294C28.148 19.1689 28.4213 19.0938 28.6688 19.0938ZM2.64 20.2547C2.8875 20.2547 3.12469 20.3297 3.3825 20.4548C4.42922 20.9602 5.23875 22.3312 5.23875 23.5771C5.23875 24.0524 5.14078 24.4827 4.90875 24.778C4.66125 25.0882 4.27969 25.2583 3.8775 25.2583C3.61453 25.2583 3.36703 25.1582 3.09375 25.0181C2.07281 24.5028 1.27875 23.1568 1.27875 21.9359C1.27875 20.9402 1.82531 20.2547 2.64 20.2547Z" fill="#FF7308"/>
</g>
<defs>
<clipPath id="clip0_3_18">
<rect width="33" height="33" fill="white"/>
</clipPath>
</defs>
</svg>
