<svg width="161" height="29" viewBox="0 0 161 29" fill="none" xmlns="http://www.w3.org/2000/svg">
<g clip-path="url(#clip0_1_2)">
<mask id="mask0_1_2" style="mask-type:luminance" maskUnits="userSpaceOnUse" x="0" y="0" width="40" height="29">
<path d="M39.1265 0H0.304688V29H39.1265V0Z" fill="white"/>
</mask>
<g mask="url(#mask0_1_2)">
<mask id="mask1_1_2" style="mask-type:alpha" maskUnits="userSpaceOnUse" x="2" y="19" width="35" height="11">
<path d="M2.81641 19.4326H36.9187V29.1163H2.81641V19.4326Z" fill="white"/>
</mask>
<g mask="url(#mask1_1_2)">
<path fill-rule="evenodd" clip-rule="evenodd" d="M12.0641 28.5369C9.16465 28.5369 6.28969 27.5138 3.83169 25.551L3.39844 25.2042L7.83228 20.2179C7.92549 20.1131 8.05669 20.0494 8.19702 20.041C8.33735 20.0325 8.47532 20.0799 8.58057 20.1727C8.68582 20.2655 8.74974 20.3962 8.75826 20.536C8.76678 20.6757 8.7192 20.8132 8.62599 20.918L4.93695 25.0656C8.03493 27.3409 11.7758 28.0514 15.2832 27.0126L19.5755 25.7395L23.8678 27.0126C27.3734 28.0514 31.1137 27.3409 34.2123 25.0673L30.4767 20.8925C30.3832 20.7879 30.3353 20.6506 30.3435 20.5108C30.3517 20.371 30.4153 20.2402 30.5203 20.1472C30.6254 20.0541 30.7632 20.0064 30.9035 20.0146C31.0439 20.0227 31.1752 20.0861 31.2686 20.1907L35.7537 25.2036L35.3187 25.5516C31.862 28.3124 27.5784 29.2137 23.5656 28.0242L19.5755 26.8415L15.5854 28.0247C14.4427 28.3644 13.2566 28.5365 12.0641 28.5369Z" fill="white"/>
</g>
</g>
<path fill-rule="evenodd" clip-rule="evenodd" d="M19.5739 26.3183L10.8408 21.299C9.87202 20.5995 9.08631 19.6782 8.54989 18.6129C8.01346 17.5475 7.74205 16.3694 7.75852 15.1777L7.83248 10.04L11.3247 11.1826C11.3919 11.2033 11.4543 11.237 11.5083 11.282C11.5622 11.3269 11.6067 11.3821 11.639 11.4443C11.6713 11.5065 11.6908 11.5745 11.6964 11.6443C11.7021 11.7141 11.6937 11.7844 11.6717 11.8509C11.6498 11.9175 11.6148 11.979 11.5687 12.0319C11.5226 12.0848 11.4664 12.1281 11.4033 12.1591C11.3403 12.1902 11.2717 12.2084 11.2015 12.2127C11.1313 12.217 11.0609 12.2074 10.9945 12.1843L8.87135 11.4906L8.81777 15.1928C8.80381 16.2106 9.03462 17.2169 9.4909 18.1278C9.94718 19.0386 10.6157 19.8275 11.4406 20.4284L19.5774 25.1021L27.8115 20.4273C28.6404 19.8272 29.3124 19.0375 29.7708 18.1247C30.2293 17.2119 30.4608 16.2028 30.446 15.1823L30.3936 11.4837L27.974 12.2522C27.8401 12.2947 27.6947 12.2825 27.5699 12.2183C27.445 12.154 27.3508 12.043 27.3081 11.9097C27.2654 11.7763 27.2777 11.6315 27.3421 11.5071C27.4066 11.3827 27.5181 11.289 27.652 11.2464L31.433 10.0464L31.5053 15.1678C31.5222 16.3624 31.2495 17.5435 30.7104 18.6108C30.1713 19.678 29.3816 20.6 28.4084 21.2984L28.3613 21.3286L19.5739 26.3183Z" fill="white"/>
<path fill-rule="evenodd" clip-rule="evenodd" d="M19.5957 17.9356L12.2305 13.7422L19.5957 24.1126L26.7991 13.7422L19.5957 17.9356Z" fill="white"/>
<path fill-rule="evenodd" clip-rule="evenodd" d="M19.5962 0L12.4609 11.8558L19.5816 16.1594L26.8002 11.9138L19.5962 0Z" fill="white"/>
<mask id="mask2_1_2" style="mask-type:alpha" maskUnits="userSpaceOnUse" x="0" y="13" width="8" height="10">
<path d="M0.308594 13.8838H7.48869V22.1494H0.308594V13.8838Z" fill="white"/>
</mask>
<g mask="url(#mask2_1_2)">
<path fill-rule="evenodd" clip-rule="evenodd" d="M4.87217 21.5705C4.7522 21.5703 4.63584 21.5296 4.54211 21.455C4.44839 21.3804 4.38286 21.2763 4.35623 21.1598C4.0045 19.6199 3.01105 17.9779 1.48419 16.4108L0.886719 15.7995L1.70372 15.5408C3.50603 14.9701 5.08122 14.8923 6.51899 15.3059C6.65397 15.3446 6.76797 15.4352 6.83589 15.5577C6.90382 15.6802 6.92012 15.8245 6.8812 15.959C6.84228 16.0934 6.75133 16.2069 6.62836 16.2746C6.5054 16.3423 6.36048 16.3585 6.2255 16.3197C5.19478 16.0239 4.1035 16.0216 2.83985 16.3197C4.16755 17.8335 5.04395 19.4129 5.38986 20.9261C5.40711 21.0034 5.40671 21.0836 5.3887 21.1608C5.37069 21.238 5.33552 21.3102 5.28579 21.372C5.23605 21.4338 5.17302 21.4838 5.10133 21.5181C5.02965 21.5525 4.95172 21.5703 4.87217 21.5705Z" fill="white"/>
</g>
<path fill-rule="evenodd" clip-rule="evenodd" d="M34.3297 21.5705C34.2501 21.5704 34.1716 21.5525 34.0999 21.5181C34.0281 21.4838 33.9651 21.4337 33.9155 21.3718C33.8658 21.3099 33.8308 21.2376 33.813 21.1603C33.7952 21.0831 33.795 21.0028 33.8126 20.9255C34.1591 19.4123 35.0355 17.8335 36.3626 16.3197C35.0989 16.0216 34.0082 16.0239 32.9769 16.3197C32.9101 16.339 32.8402 16.345 32.7711 16.3373C32.7019 16.3296 32.635 16.3084 32.5741 16.2749C32.5133 16.2414 32.4596 16.1962 32.4163 16.142C32.373 16.0878 32.3409 16.0256 32.3218 15.959C32.3024 15.8925 32.2963 15.8228 32.304 15.754C32.3116 15.6852 32.3328 15.6185 32.3664 15.5578C32.3999 15.4972 32.4451 15.4437 32.4994 15.4005C32.5537 15.3572 32.6161 15.3251 32.6829 15.3059C34.1212 14.8923 35.697 14.9701 37.4987 15.5408L38.3157 15.7995L37.7188 16.4108C36.1914 17.9774 35.1985 19.6193 34.8462 21.1598C34.8196 21.2763 34.7541 21.3804 34.6603 21.455C34.5666 21.5296 34.4496 21.5703 34.3297 21.5705Z" fill="white"/>
<path fill-rule="evenodd" clip-rule="evenodd" d="M11.1475 10.1132C11.0729 10.1133 10.9991 10.0978 10.931 10.0675C10.8628 10.0372 10.8019 9.99297 10.7521 9.9376C10.7024 9.88223 10.6649 9.81701 10.6422 9.74621C10.6196 9.67542 10.6122 9.60065 10.6205 9.5268L11.0421 5.77246L13.683 7.56582C13.7955 7.64604 13.8721 7.76693 13.8963 7.90265C13.9206 8.03837 13.8905 8.17814 13.8126 8.29208C13.7347 8.40603 13.6152 8.4851 13.4795 8.51239C13.3439 8.53969 13.2029 8.51304 13.0867 8.43814L11.8993 7.63194L11.6734 9.64396C11.6589 9.77286 11.5973 9.89195 11.5003 9.97849C11.4033 10.065 11.2778 10.113 11.1475 10.1132Z" fill="white"/>
<path fill-rule="evenodd" clip-rule="evenodd" d="M27.877 10.1129C27.7483 10.1127 27.624 10.0658 27.5275 9.98094C27.431 9.89604 27.369 9.77901 27.3529 9.65177L27.0932 7.62351L25.8948 8.43783C25.7786 8.51667 25.6358 8.54632 25.4977 8.52027C25.3596 8.49422 25.2376 8.4146 25.1584 8.29892C25.0793 8.18325 25.0495 8.04099 25.0757 7.90345C25.1018 7.76591 25.1818 7.64435 25.2979 7.56551L27.9265 5.78027L28.4035 9.51895C28.4129 9.59331 28.4063 9.66882 28.3841 9.74045C28.362 9.81208 28.3248 9.87819 28.275 9.93438C28.2252 9.99057 28.1639 10.0355 28.0953 10.0663C28.0267 10.0971 27.9523 10.113 27.877 10.1129Z" fill="white"/>
<path fill-rule="evenodd" clip-rule="evenodd" d="M95.0854 4.34863V13.4405H84.2189V4.35025H47.6992V25.9236H64.3838V22.5339H52.1447V16.831H64.3846V13.4413H52.1447V7.74001H69.8786V25.9236H74.3224V7.74001H79.7735V25.9236H84.2181V16.831H95.0854V25.9228H99.5292V4.35025L95.0854 4.34863Z" fill="white"/>
<path fill-rule="evenodd" clip-rule="evenodd" d="M102.469 25.9227H105.989V4.27832H102.469V25.9227Z" fill="white"/>
<path fill-rule="evenodd" clip-rule="evenodd" d="M109.091 11.2673H112.505V12.6216C113.694 11.4481 115.034 10.8613 116.524 10.8613C118.236 10.8613 119.571 11.398 120.527 12.4715C121.353 13.3835 121.767 14.8734 121.767 16.9403V25.9232H118.353V17.7385C118.353 16.2938 118.15 15.2963 117.748 14.7442C117.354 14.1825 116.639 13.9016 115.602 13.9016C114.474 13.9016 113.673 14.2729 113.199 15.0154C112.735 15.7474 112.505 17.0267 112.505 18.8523V25.9248H109.09V11.2673H109.091Z" fill="white"/>
<path d="M126.67 18.55C126.67 19.9552 127.048 21.0988 127.804 21.9809C128.578 22.8744 129.556 23.3207 130.735 23.3207C131.993 23.3207 133.01 22.8897 133.786 22.0269C134.562 21.1335 134.95 20.0012 134.95 18.6259C134.95 17.2514 134.561 16.1175 133.786 15.2248C133.01 14.3532 132.004 13.9157 130.765 13.9157C129.595 13.9157 128.618 14.3572 127.834 15.2393C127.058 16.1328 126.67 17.2369 126.67 18.55ZM134.738 4.27913H138.152V25.9244H134.738V24.3893C133.399 25.6943 131.883 26.3465 130.191 26.3465C128.176 26.3465 126.504 25.6136 125.174 24.1488C123.853 22.654 123.195 20.7881 123.195 18.5508C123.195 16.3644 123.854 14.5396 125.174 13.0739C126.484 11.5994 128.13 10.8625 130.115 10.8625C131.837 10.8625 133.378 11.5647 134.738 12.969V4.27913Z" fill="white"/>
<path d="M140.584 25.9231H143.983V11.2664H140.584V25.9231ZM140.07 6.46184C140.07 5.86943 140.287 5.35774 140.72 4.92676C140.921 4.71866 141.163 4.55386 141.431 4.44253C141.699 4.3312 141.987 4.27571 142.277 4.27948C142.89 4.27948 143.414 4.49578 143.847 4.92676C144.28 5.34806 144.497 5.86459 144.497 6.47636C144.497 7.08813 144.28 7.61032 143.847 8.0413C143.647 8.25079 143.406 8.41652 143.138 8.52795C142.87 8.63939 142.582 8.69409 142.291 8.68859C141.999 8.69334 141.709 8.63836 141.438 8.52703C141.168 8.41571 140.924 8.25039 140.72 8.0413C140.287 7.61032 140.07 7.0841 140.07 6.46184Z" fill="white"/>
<path d="M149.216 18.5488C149.216 19.954 149.594 21.0976 150.349 21.9797C151.124 22.8732 152.102 23.3195 153.281 23.3195C154.539 23.3195 155.558 22.8885 156.332 22.0257C157.107 21.1323 157.496 20 157.496 18.6247C157.496 17.2502 157.107 16.1163 156.332 15.2236C155.557 14.352 154.55 13.9145 153.311 13.9145C152.142 13.9145 151.165 14.356 150.38 15.2382C149.604 16.1316 149.216 17.2357 149.216 18.5488ZM157.284 11.2665H160.698V25.9232H157.284V24.3873C155.884 25.6923 154.378 26.3445 152.767 26.3445C150.731 26.3445 149.05 25.6116 147.719 24.1468C146.401 22.652 145.742 20.7861 145.742 18.5488C145.742 16.3519 146.401 14.5215 147.719 13.0566C149.04 11.5917 150.691 10.8613 152.676 10.8613C154.388 10.8613 155.924 11.5619 157.284 12.9662V11.2665Z" fill="white"/>
</g>
<defs>
<clipPath id="clip0_1_2">
<rect width="161" height="29" fill="white"/>
</clipPath>
</defs>
</svg>
