<svg width="44" height="42" viewBox="0 0 44 42" fill="none" xmlns="http://www.w3.org/2000/svg">
<path d="M15.0375 14.9427L19.0361 18.8828L19.9557 17.49L19.0593 13.6981L19.1325 9.34647L21.4931 4.10509L22.8994 8.03355L23.361 12.9383L22.2681 17.0168L22.8779 18.8194L27.5144 15.2807L31.8777 12.7615L35.9745 12.7664L33.029 16.6217L28.0193 19.514L23.3012 20.2988L23.7677 21.1069L28.4059 23.1693L32.9759 25.4866L35.495 29.8499L31.4416 29.1736L26.6167 26.7879L22.2016 22.8729L22.7748 26.8513L23.2431 33.2605L20.5776 37.6006L19.2147 33.0007L19.033 28.5808L19.7026 23.0229L12.5055 28.471L6.9976 28.6344L10.6828 24.5675L15.2576 22.7881L18.4897 20.922L11.6256 17.99L7.13551 12.8254L15.0375 14.9427Z" fill="#FA5596"/>
<path d="M21.6582 20.4855C21.4806 20.5897 21.2771 20.6418 21.0712 20.6358C20.8723 20.6316 20.6775 20.5786 20.504 20.4814C20.3304 20.3843 20.1833 20.2459 20.0758 20.0786C18.6534 17.5249 17.9149 14.647 17.9318 11.7239C17.9487 8.80088 18.7205 5.93175 20.1723 3.39467C20.2777 3.22137 20.4265 3.07855 20.604 2.98028C20.7814 2.88202 20.9814 2.83171 21.1843 2.83431C21.3871 2.83691 21.5857 2.89234 21.7606 2.99513C21.9355 3.09792 22.0805 3.24451 22.1815 3.42046C23.6028 5.97129 24.3399 8.84653 24.3209 11.7666C24.3019 14.6866 23.5276 17.552 22.0733 20.0842C21.9724 20.2519 21.8293 20.3903 21.6582 20.4855ZM21.1507 6.62974C19.922 9.84659 19.9049 13.4005 21.1026 16.629C22.2925 13.4134 22.2881 9.87738 21.0901 6.66475L21.1507 6.62974Z" fill="#FA5596"/>
<path d="M20.1662 21.3448C19.9895 21.4515 19.7854 21.5038 19.5792 21.4951C16.6619 21.4508 13.8056 20.6529 11.2877 19.1789C8.76974 17.7049 6.67572 15.6048 5.20893 13.0827C5.11585 12.9068 5.06931 12.71 5.07371 12.5111C5.07812 12.3121 5.13333 12.1176 5.2341 11.946C5.33487 11.7744 5.47785 11.6314 5.64945 11.5306C5.82105 11.4299 6.01557 11.3746 6.21453 11.3702C9.13415 11.4099 11.9938 12.2044 14.5155 13.6764C17.0372 15.1485 19.135 17.2481 20.605 19.7709C20.7003 19.9465 20.7489 20.1435 20.7463 20.3432C20.7436 20.543 20.6898 20.7387 20.5898 20.9116C20.4921 21.0929 20.3453 21.2431 20.1662 21.3448ZM8.48655 13.8584C10.6664 16.4873 13.7185 18.245 17.0863 18.811C14.9092 16.1789 11.8558 14.4205 8.48655 13.8584Z" fill="#FA5596"/>
<path d="M14.3046 28.7485C11.8094 30.1862 8.9616 30.8969 6.08346 30.8C5.88488 30.7938 5.69118 30.737 5.52069 30.635C5.3502 30.533 5.20859 30.3891 5.10925 30.2171C5.00991 30.045 4.95615 29.8504 4.95305 29.6518C4.94994 29.4531 4.99761 29.257 5.09153 29.0819C6.56841 26.5612 8.67526 24.4678 11.2053 23.007C13.7354 21.5463 16.6018 20.7684 19.5233 20.7497C19.7219 20.7559 19.9156 20.8127 20.086 20.9148C20.2565 21.0168 20.3982 21.1606 20.4975 21.3327C20.5968 21.5047 20.6506 21.6993 20.6537 21.8979C20.6568 22.0966 20.6091 22.2927 20.5152 22.4678C18.9974 25.0436 16.8632 27.2019 14.3046 28.7485ZM8.41454 28.3492C11.8165 27.7874 14.8982 26.0082 17.0857 23.3429C13.6838 23.9047 10.602 25.6839 8.41454 28.3492Z" fill="#FA5596"/>
<path d="M21.5 39.3049C21.3233 39.4115 21.1191 39.4638 20.913 39.4551C20.7128 39.4575 20.5155 39.4073 20.3408 39.3095C20.1661 39.2117 20.0202 39.0698 19.9175 38.8979C18.4976 36.3491 17.757 33.478 17.7668 30.5603C17.7766 27.6427 18.5366 24.7766 19.9736 22.2374C20.0795 22.063 20.2276 21.9182 20.4042 21.8162C20.5808 21.7142 20.7803 21.6584 20.9842 21.6539C21.1856 21.6586 21.3823 21.7153 21.5552 21.8185C21.7282 21.9217 21.8715 22.068 21.9711 22.243C23.4023 24.7877 24.1467 27.6611 24.1313 30.5806C24.1159 33.5002 23.3411 36.3655 21.8832 38.895C21.7907 39.0607 21.6591 39.2014 21.5 39.3049ZM20.9847 25.6692C19.7665 28.888 19.7495 32.4381 20.9366 35.6685C22.1654 32.4516 22.1825 28.8977 20.9847 25.6692Z" fill="#FA5596"/>
<path d="M36.3828 30.8231C36.2075 30.9254 36.0102 30.9839 35.8074 30.9936C32.8897 30.9515 30.0325 30.1546 27.5142 28.6804C24.9959 27.2061 22.9022 25.1049 21.4372 22.5812C21.3364 22.4042 21.2837 22.204 21.2844 22.0003C21.285 21.7966 21.3389 21.5967 21.4407 21.4203C21.5392 21.2448 21.6832 21.0991 21.8575 20.9985C22.0317 20.8979 22.2299 20.8461 22.4311 20.8485C25.3517 20.8836 28.2132 21.6762 30.7356 23.1487C33.258 24.6212 35.3551 26.7233 36.8216 29.2492C36.916 29.4282 36.9651 29.6277 36.9645 29.8301C36.9639 30.0325 36.9136 30.2316 36.8181 30.4101C36.7063 30.5791 36.5574 30.7204 36.3828 30.8231ZM24.8976 23.4401C27.0685 26.1188 30.1378 27.9186 33.5354 28.5054C31.3548 25.838 28.2901 24.0408 24.8976 23.4401Z" fill="#FA5596"/>
<path d="M31.1031 19.1552C28.4507 20.651 25.4621 21.4492 22.4171 21.4751C22.2162 21.4682 22.0204 21.4106 21.8478 21.3076C21.6752 21.2046 21.5316 21.0596 21.4302 20.8861C21.3285 20.7122 21.2735 20.515 21.2705 20.3137C21.2676 20.1123 21.3169 19.9136 21.4135 19.7368C22.8956 17.2208 25.0036 15.1311 27.5325 13.671C30.0615 12.2109 32.9252 11.4302 35.8452 11.4047C36.0466 11.4093 36.2433 11.4661 36.4162 11.5693C36.5892 11.6725 36.7324 11.8187 36.8321 11.9937C36.9317 12.1683 36.9855 12.3652 36.9884 12.5662C36.9913 12.7671 36.9433 12.9656 36.8488 13.1429C35.5152 15.6317 33.5289 17.7102 31.1031 19.1552ZM24.9215 18.9512C28.3191 18.3773 31.3969 16.6003 33.5927 13.9449C30.1937 14.5147 27.1146 16.2925 24.9215 18.9512Z" fill="#FA5596"/>
</svg>
