<svg width="39" height="39" viewBox="0 0 39 39" fill="none" xmlns="http://www.w3.org/2000/svg">
<g clip-path="url(#clip0_3_6)">
<path d="M38.5008 27.8031L10.5168 0.457365C9.87219 -0.173253 8.85136 -0.14827 8.23785 0.510778C7.62351 1.16982 7.64707 2.21396 8.29087 2.84286L12.0805 6.54644L6.51516 12.5158L2.72471 8.81219C2.08007 8.18157 1.06008 8.20655 0.445734 8.86646C-0.168614 9.52551 -0.14505 10.5705 0.498753 11.1994L28.4844 38.5443C28.7966 38.8492 29.1972 39 29.597 39C30.022 39 30.447 38.8303 30.7634 38.4891C31.3769 37.8292 31.3542 36.7851 30.7104 36.1562L26.9208 32.4526L32.4861 26.4841L36.2757 30.1869C36.5879 30.4918 36.9885 30.6435 37.3882 30.6435C37.8132 30.6435 38.2382 30.4729 38.5547 30.1317C39.169 29.477 39.1446 28.4328 38.5008 27.8031ZM17.5911 23.3414L23.1564 17.3721L26.0708 20.2202L20.5063 26.1895L17.5911 23.3414ZM12.9271 18.7832L18.4924 12.8139L21.4076 15.6628L15.8423 21.6304L12.9271 18.7832ZM13.8293 8.25652L16.7436 11.1055L11.1783 17.0748L8.26394 14.2259L13.8293 8.25652ZM25.172 30.746L22.2559 27.8979L27.8212 21.9285L30.7365 24.7766L25.172 30.746Z" fill="#FFB61C"/>
</g>
<defs>
<clipPath id="clip0_3_6">
<rect width="39" height="39" fill="white"/>
</clipPath>
</defs>
</svg>
