<svg width="1091" height="1089" viewBox="0 0 1091 1089" fill="none" xmlns="http://www.w3.org/2000/svg">
<path d="M233.5 994.5L212 880.5L99 860.5L117.5 747L17.5 687.5L75 588.5L0 499.5L88 423.5L48.5 316.5L156.5 274.5V160.5L274 158.5L312.5 50.5L420.5 88.5L496 0L584.5 74L685 16.5L743.5 116L857 95L878 210L992 229.5L972.5 343L1074 401.5L1017 502L1090.5 589.5L1003 665L1042 773.5L933.5 815V930.5H818.5L779.5 1039.5L670 1001L595 1088.5L506.5 1016L406.5 1074L347.5 975L233.5 994.5Z" fill="#EE7D32"/>
<g clip-path="url(#clip0_12_413)">
<path d="M383.373 121.525C382.3 124.461 383.007 127.695 383.749 129.224C384.61 131.001 386.288 132.16 388.127 132.467C388.217 132.642 388.276 132.798 388.371 132.976C389.162 134.443 390.089 136.015 391.61 137.51C392.38 138.244 393.319 138.942 394.405 139.458C394.958 139.727 395.508 139.906 396.061 140.05C396.6 140.225 397.185 140.335 397.809 140.377C399.022 140.528 400.289 140.329 401.383 140.023C402.455 139.692 403.373 139.25 404.131 138.826C405.651 137.968 406.768 137.234 407.701 136.889C408.631 136.541 409.291 136.484 410.2 136.671C412.301 137.108 412.897 138.031 412.929 139.203C412.814 140.807 412.152 141.903 410.059 142.769C407.995 143.641 405.125 144.033 402.218 144.32C399.281 144.613 396.195 144.783 392.98 145.208C389.78 145.681 386.34 146.202 382.873 148.241C381.172 149.257 379.527 150.802 378.497 152.704C377.509 154.496 376.86 156.852 377.32 159.295C378.2 164.298 383.008 167.376 387.059 167.724C391.288 168.194 394.846 166.927 397.759 165.702C400.72 164.447 403.368 163.071 405.903 162.147C408.438 161.227 410.68 160.959 412.422 161.6C413.297 161.935 413.673 162.311 413.88 162.735C414.105 163.161 414.119 163.938 413.857 164.416C413.721 164.687 413.59 164.889 413.312 165.136C413.018 165.381 412.558 165.667 411.943 166.001C411.328 166.342 410.561 166.717 409.71 167.295C408.864 167.872 407.952 168.693 407.287 169.708C406.94 170.213 406.697 170.75 406.475 171.292C406.24 171.905 406.084 172.673 406.082 173.276C406.055 174.549 406.357 175.561 406.734 176.444C407.541 178.188 408.648 179.501 410.147 180.499C410.376 180.652 410.654 180.749 410.946 180.765C411.8 180.813 412.518 180.177 412.549 179.345L412.553 179.285C412.613 177.628 412.374 176.207 412.356 175.057C412.331 174.498 412.351 174.017 412.425 173.8C412.454 173.66 412.471 173.693 412.506 173.617C412.578 173.477 412.63 173.334 412.718 173.231C412.98 172.798 413.697 172.345 415.182 171.601C415.893 171.224 416.752 170.759 417.623 170.057C418.5 169.346 419.306 168.359 419.828 167.296C420.901 165.119 420.999 162.644 420.018 160.302C419.033 157.921 416.813 156.238 414.831 155.499C412.839 154.782 410.682 154.433 408.757 154.653C406.785 154.773 405.084 155.287 403.454 155.805C400.275 156.918 397.539 158.305 394.909 159.356C392.293 160.455 389.815 161.04 387.901 160.774C387.424 160.712 386.965 160.534 386.548 160.431C386.189 160.284 385.841 160.074 385.545 159.83C384.944 159.329 384.634 158.755 384.555 158.225C384.45 157.696 384.619 157.02 385.03 156.214C385.426 155.496 386.012 154.905 386.882 154.369C388.619 153.288 391.333 152.693 394.132 152.316C396.965 151.931 399.984 151.752 403.12 151.436C406.259 151.085 409.54 150.772 413.093 149.321C414.838 148.581 416.738 147.44 418.131 145.598C418.807 144.682 419.345 143.645 419.685 142.62C420.027 141.634 420.224 140.516 420.227 139.347C420.277 137 419.19 134.438 417.415 132.764C416.54 131.912 415.531 131.246 414.464 130.763C413.911 130.514 413.389 130.336 412.909 130.212C412.398 130.085 411.944 129.901 411.383 129.841C409.277 129.404 406.774 129.714 404.915 130.528C403.032 131.313 401.665 132.315 400.567 132.939C399.429 133.613 398.834 133.762 398.258 133.72C397.552 133.642 396.928 133.451 396.265 132.823C395.492 132.136 394.753 131.023 394.027 129.743C394.905 128.218 395.044 126.304 394.205 124.573C393.463 123.044 391.339 120.44 388.304 119.331C387.372 118.99 386.312 118.995 385.351 119.422C384.39 119.85 383.703 120.622 383.373 121.525Z" fill="#FFBB22"/>
</g>
<g clip-path="url(#clip1_12_413)">
<path d="M617.322 106.16C614.766 107.959 613.501 111.018 613.237 112.697C612.931 114.647 613.647 116.556 614.982 117.858C614.956 118.053 614.916 118.215 614.892 118.415C614.705 120.072 614.569 121.892 614.965 123.986C615.179 125.029 615.551 126.137 616.148 127.182C616.449 127.718 616.798 128.179 617.17 128.613C617.513 129.064 617.93 129.488 618.419 129.879C619.33 130.695 620.483 131.255 621.556 131.628C622.626 131.968 623.632 132.129 624.496 132.213C626.234 132.376 627.57 132.41 628.533 132.659C629.495 132.904 630.07 133.234 630.709 133.906C632.185 135.464 632.149 136.562 631.506 137.543C630.496 138.794 629.327 139.317 627.114 138.833C624.921 138.372 622.341 137.056 619.79 135.633C617.211 134.197 614.579 132.576 611.697 131.09C608.799 129.653 605.677 128.118 601.667 127.814C599.69 127.677 597.457 128.007 595.526 128.981C593.693 129.889 591.814 131.454 590.799 133.722C588.666 138.333 590.858 143.604 593.986 146.202C597.191 149.001 600.836 149.991 603.927 150.647C607.074 151.306 610.034 151.687 612.643 152.375C615.25 153.066 617.244 154.125 618.309 155.646C618.836 156.421 618.93 156.943 618.858 157.41C618.8 157.888 618.368 158.534 617.88 158.777C617.614 158.922 617.391 159.013 617.022 159.057C616.64 159.091 616.1 159.063 615.404 158.986C614.704 158.915 613.861 158.786 612.831 158.775C611.808 158.766 610.59 158.919 609.465 159.374C608.892 159.591 608.386 159.892 607.895 160.212C607.352 160.581 606.785 161.123 606.439 161.616C605.691 162.646 605.362 163.65 605.167 164.59C604.835 166.483 604.994 168.192 605.656 169.868C605.757 170.124 605.929 170.362 606.16 170.542C606.834 171.069 607.787 170.956 608.288 170.29L608.324 170.244C609.32 168.917 609.934 167.613 610.575 166.659C610.874 166.186 611.165 165.802 611.35 165.666C611.453 165.567 611.448 165.605 611.52 165.562C611.659 165.488 611.784 165.401 611.915 165.366C612.376 165.16 613.224 165.197 614.869 165.433C615.668 165.529 616.638 165.638 617.754 165.558C618.88 165.475 620.105 165.125 621.14 164.549C623.264 163.374 624.757 161.398 625.288 158.915C625.838 156.397 624.974 153.748 623.769 152.01C622.542 150.284 620.969 148.767 619.264 147.85C617.575 146.823 615.885 146.274 614.251 145.769C611.006 144.869 607.967 144.447 605.208 143.81C602.432 143.219 600.063 142.286 598.644 140.975C598.287 140.652 598.011 140.244 597.729 139.921C597.517 139.596 597.352 139.225 597.247 138.855C597.04 138.101 597.113 137.453 597.351 136.972C597.566 136.478 598.09 136.019 598.888 135.592C599.623 135.228 600.441 135.077 601.462 135.134C603.505 135.237 606.073 136.298 608.587 137.584C611.133 138.885 613.715 140.461 616.47 141.991C619.248 143.495 622.122 145.109 625.867 145.945C627.722 146.333 629.933 146.48 632.129 145.762C633.207 145.396 634.239 144.852 635.104 144.204C635.948 143.589 636.748 142.784 637.417 141.826C638.797 139.927 639.367 137.202 638.864 134.814C638.632 133.616 638.183 132.493 637.583 131.487C637.27 130.967 636.943 130.524 636.62 130.148C636.273 129.752 636.005 129.342 635.579 128.972C634.099 127.412 631.866 126.238 629.875 125.846C627.881 125.416 626.186 125.458 624.929 125.345C623.61 125.248 623.036 125.031 622.586 124.668C622.052 124.201 621.648 123.688 621.462 122.794C621.219 121.789 621.248 120.453 621.382 118.988C622.973 118.236 624.18 116.744 624.478 114.844C624.742 113.165 624.483 109.815 622.624 107.172C622.052 106.36 621.18 105.759 620.146 105.561C619.113 105.364 618.108 105.607 617.322 106.16Z" fill="#FFBB22"/>
</g>
<g clip-path="url(#clip2_12_413)">
<path d="M828.239 198.555C825.147 199.017 822.645 201.185 821.657 202.567C820.509 204.173 820.293 206.201 820.904 207.963C820.792 208.126 820.684 208.253 820.573 208.421C819.663 209.818 818.726 211.384 818.141 213.434C817.865 214.461 817.701 215.619 817.766 216.82C817.795 217.434 817.901 218.003 818.038 218.558C818.143 219.115 818.326 219.681 818.587 220.249C819.036 221.387 819.816 222.405 820.607 223.219C821.412 224.002 822.238 224.597 822.973 225.06C824.454 225.984 825.633 226.614 826.382 227.269C827.132 227.919 827.499 228.471 827.768 229.358C828.39 231.413 827.865 232.377 826.851 232.967C825.387 233.632 824.107 233.576 822.346 232.151C820.593 230.756 818.876 228.423 817.234 226.007C815.571 223.568 813.946 220.939 812.035 218.319C810.09 215.735 807.987 212.964 804.538 210.894C802.832 209.886 800.688 209.18 798.525 209.185C796.479 209.175 794.099 209.731 792.174 211.304C788.201 214.47 787.798 220.164 789.429 223.888C791.04 227.827 793.854 230.346 796.323 232.318C798.841 234.318 801.316 235.985 803.34 237.769C805.361 239.556 806.669 241.396 806.939 243.233C807.063 244.162 806.913 244.671 806.639 245.056C806.373 245.458 805.698 245.841 805.152 245.84C804.85 245.85 804.609 245.832 804.259 245.706C803.903 245.565 803.433 245.298 802.845 244.917C802.251 244.54 801.555 244.046 800.64 243.575C799.729 243.108 798.572 242.7 797.362 242.602C796.752 242.538 796.165 242.581 795.583 242.646C794.932 242.733 794.183 242.964 793.652 243.25C792.522 243.835 791.778 244.584 791.182 245.338C790.037 246.881 789.413 248.481 789.253 250.275C789.229 250.549 789.276 250.839 789.402 251.104C789.768 251.877 790.671 252.203 791.416 251.832L791.47 251.807C792.955 251.067 794.088 250.177 795.089 249.611C795.568 249.322 796 249.109 796.226 249.071C796.363 249.029 796.342 249.06 796.425 249.054C796.583 249.05 796.733 249.028 796.866 249.057C797.371 249.079 798.113 249.492 799.476 250.44C800.148 250.884 800.966 251.416 801.999 251.845C803.043 252.275 804.295 252.512 805.479 252.461C807.904 252.362 810.124 251.265 811.712 249.284C813.332 247.279 813.748 244.525 813.449 242.431C813.126 240.338 812.4 238.277 811.287 236.692C810.238 235.017 808.973 233.769 807.739 232.586C805.241 230.326 802.714 228.586 800.533 226.78C798.317 225.008 796.618 223.112 795.937 221.304C795.762 220.855 795.699 220.367 795.59 219.952C795.548 219.566 795.566 219.16 795.638 218.783C795.791 218.016 796.147 217.469 796.575 217.146C796.989 216.801 797.663 216.626 798.567 216.601C799.388 216.605 800.187 216.838 801.074 217.346C802.853 218.354 804.674 220.453 806.344 222.73C808.037 225.034 809.638 227.6 811.416 230.203C813.225 232.792 815.07 235.524 818.043 237.95C819.528 239.128 821.438 240.251 823.723 240.593C824.85 240.749 826.018 240.725 827.08 240.534C828.111 240.362 829.187 240.001 830.214 239.444C832.299 238.366 834.03 236.186 834.651 233.826C834.981 232.65 835.083 231.445 834.997 230.277C834.951 229.672 834.857 229.13 834.737 228.649C834.604 228.139 834.548 227.652 834.333 227.131C833.71 225.072 832.24 223.023 830.636 221.779C829.046 220.501 827.512 219.779 826.439 219.114C825.303 218.437 824.887 217.985 824.648 217.459C824.379 216.802 824.248 216.163 824.483 215.28C824.716 214.273 825.341 213.092 826.117 211.842C827.877 211.883 829.625 211.09 830.743 209.525C831.731 208.143 833.002 205.032 832.524 201.836C832.377 200.854 831.867 199.926 831.032 199.286C830.197 198.646 829.189 198.413 828.239 198.555Z" fill="#FFBB22"/>
</g>
<g clip-path="url(#clip3_12_413)">
<path d="M954.499 385.721C951.514 384.793 948.318 385.658 946.827 386.474C945.095 387.422 944.02 389.154 943.804 391.006C943.633 391.105 943.48 391.172 943.307 391.275C941.88 392.137 940.356 393.141 938.938 394.732C938.242 395.538 937.592 396.51 937.129 397.62C936.888 398.186 936.736 398.744 936.619 399.303C936.471 399.85 936.389 400.439 936.378 401.065C936.288 402.284 936.548 403.54 936.907 404.617C937.291 405.672 937.777 406.567 938.238 407.304C939.169 408.78 939.958 409.859 940.348 410.774C940.741 411.686 940.831 412.342 940.688 413.259C940.355 415.379 939.463 416.02 938.294 416.11C936.686 416.073 935.558 415.466 934.591 413.417C933.618 411.399 933.086 408.552 932.657 405.662C932.219 402.743 931.898 399.669 931.316 396.479C930.687 393.306 929.997 389.896 927.791 386.534C926.692 384.884 925.068 383.317 923.118 382.381C921.28 381.483 918.894 380.95 916.477 381.53C911.523 382.655 908.685 387.608 908.536 391.671C908.275 395.918 909.715 399.41 911.082 402.259C912.48 405.154 913.985 407.732 915.032 410.218C916.075 412.705 916.454 414.931 915.899 416.703C915.607 417.594 915.25 417.987 914.837 418.215C914.422 418.46 913.647 418.512 913.156 418.274C912.88 418.152 912.671 418.031 912.411 417.765C912.151 417.483 911.844 417.038 911.479 416.44C911.109 415.842 910.697 415.095 910.077 414.273C909.46 413.457 908.595 412.586 907.548 411.972C907.026 411.65 906.479 411.434 905.926 411.239C905.302 411.034 904.527 410.916 903.925 410.944C902.653 410.979 901.657 411.331 900.793 411.75C899.091 412.642 897.834 413.812 896.91 415.359C896.769 415.595 896.685 415.877 896.684 416.17C896.678 417.025 897.349 417.711 898.182 417.701L898.241 417.702C899.9 417.68 901.307 417.372 902.454 417.297C903.012 417.245 903.493 417.241 903.713 417.305C903.855 417.327 903.822 417.346 903.9 417.376C904.044 417.441 904.189 417.487 904.296 417.57C904.741 417.81 905.229 418.504 906.046 419.95C906.457 420.642 906.963 421.477 907.707 422.312C908.461 423.153 909.486 423.91 910.573 424.379C912.8 425.344 915.277 425.321 917.568 424.226C919.898 423.125 921.469 420.825 922.111 418.809C922.729 416.784 922.971 414.612 922.657 412.701C922.44 410.737 921.844 409.063 921.246 407.461C919.979 404.34 918.459 401.676 917.28 399.101C916.054 396.541 915.348 394.095 915.52 392.171C915.558 391.691 915.713 391.224 915.796 390.803C915.925 390.437 916.118 390.079 916.346 389.771C916.818 389.146 917.376 388.809 917.901 388.704C918.424 388.573 919.108 388.708 919.933 389.079C920.67 389.439 921.289 389.996 921.867 390.839C923.031 392.52 923.759 395.202 924.273 397.978C924.797 400.789 925.124 403.796 925.594 406.913C926.098 410.031 926.572 413.293 928.196 416.77C929.021 418.477 930.253 420.318 932.162 421.619C933.11 422.249 934.171 422.735 935.212 423.025C936.214 423.318 937.341 423.46 938.508 423.405C940.854 423.341 943.36 422.129 944.945 420.273C945.753 419.358 946.369 418.317 946.799 417.228C947.02 416.663 947.172 416.133 947.273 415.648C947.374 415.132 947.536 414.668 947.569 414.106C947.902 411.981 947.469 409.496 946.565 407.679C945.688 405.837 944.62 404.52 943.943 403.455C943.214 402.351 943.036 401.764 943.049 401.186C943.093 400.478 943.253 399.845 943.847 399.152C944.495 398.346 945.571 397.554 946.814 396.765C948.381 397.567 950.299 397.613 951.986 396.689C953.477 395.874 955.973 393.624 956.932 390.538C957.227 389.59 957.17 388.532 956.696 387.593C956.222 386.654 955.416 386.006 954.499 385.721Z" fill="#FFBB22"/>
</g>
<g clip-path="url(#clip4_12_413)">
<path d="M988.502 619.655C986.511 617.245 983.363 616.22 981.669 616.087C979.7 615.932 977.852 616.793 976.658 618.225C976.461 618.214 976.296 618.186 976.095 618.178C974.429 618.119 972.604 618.124 970.546 618.681C969.523 618.974 968.447 619.431 967.452 620.107C966.94 620.448 966.508 620.832 966.104 621.236C965.68 621.613 965.29 622.062 964.938 622.58C964.195 623.55 963.725 624.744 963.437 625.842C963.18 626.935 963.097 627.95 963.08 628.819C963.052 630.564 963.121 631.899 962.946 632.878C962.777 633.856 962.493 634.455 961.871 635.144C960.432 636.736 959.335 636.784 958.307 636.219C956.982 635.309 956.37 634.184 956.681 631.94C956.972 629.718 958.085 627.044 959.307 624.391C960.539 621.708 961.953 618.959 963.211 615.971C964.421 612.971 965.71 609.74 965.704 605.718C965.687 603.736 965.186 601.535 964.065 599.685C963.019 597.928 961.314 596.176 958.974 595.338C954.212 593.568 949.126 596.16 946.777 599.479C944.234 602.891 943.528 606.601 943.113 609.734C942.698 612.923 942.547 615.903 942.063 618.557C941.575 621.21 940.673 623.28 939.239 624.459C938.508 625.045 937.994 625.179 937.523 625.143C937.042 625.122 936.365 624.741 936.084 624.273C935.919 624.019 935.811 623.803 935.739 623.439C935.675 623.061 935.662 622.52 935.684 621.821C935.701 621.117 935.765 620.266 935.697 619.239C935.627 618.218 935.38 617.016 934.84 615.93C934.579 615.374 934.239 614.894 933.883 614.428C933.473 613.915 932.889 613.392 932.37 613.086C931.286 612.419 930.26 612.168 929.307 612.047C927.395 611.862 925.702 612.153 924.083 612.942C923.836 613.062 923.611 613.252 923.45 613.497C922.976 614.209 923.163 615.151 923.865 615.598L923.914 615.631C925.314 616.521 926.661 617.033 927.662 617.598C928.157 617.86 928.562 618.12 928.711 618.294C928.818 618.39 928.78 618.388 928.829 618.456C928.913 618.589 929.01 618.706 929.054 618.835C929.295 619.279 929.324 620.127 929.216 621.784C929.181 622.589 929.148 623.564 929.313 624.671C929.484 625.787 929.927 626.981 930.581 627.969C931.917 629.995 934.002 631.332 936.519 631.669C939.071 632.023 941.646 630.958 943.286 629.622C944.911 628.265 946.303 626.58 947.086 624.809C947.979 623.046 948.396 621.319 948.773 619.651C949.42 616.346 949.607 613.283 950.029 610.483C950.404 607.67 951.151 605.236 952.349 603.72C952.643 603.339 953.029 603.033 953.328 602.726C953.636 602.49 953.994 602.296 954.354 602.164C955.09 601.899 955.742 601.922 956.239 602.121C956.749 602.298 957.247 602.785 957.734 603.548C958.154 604.252 958.367 605.057 958.39 606.079C958.444 608.123 957.585 610.766 956.496 613.371C955.396 616.01 954.024 618.706 952.711 621.572C951.427 624.457 950.039 627.447 949.494 631.245C949.251 633.125 949.275 635.341 950.16 637.475C950.608 638.521 951.231 639.508 951.943 640.32C952.622 641.114 953.487 641.85 954.493 642.443C956.493 643.673 959.253 644.03 961.595 643.344C962.772 643.021 963.858 642.486 964.814 641.81C965.308 641.458 965.725 641.098 966.075 640.747C966.442 640.371 966.831 640.071 967.166 639.618C968.608 638.022 969.606 635.706 969.843 633.69C970.118 631.669 969.945 629.982 969.961 628.72C969.955 627.397 970.127 626.808 970.455 626.332C970.879 625.763 971.359 625.321 972.236 625.066C973.22 624.746 974.554 624.672 976.025 624.692C976.897 626.221 978.478 627.309 980.396 627.46C982.09 627.593 985.41 627.076 987.901 625.019C988.667 624.386 989.199 623.47 989.316 622.424C989.433 621.379 989.114 620.396 988.502 619.655Z" fill="#FFBB22"/>
</g>
<path d="M891.581 824.74C890.79 821.716 888.366 819.461 886.885 818.627C885.165 817.658 883.126 817.662 881.44 818.458C881.265 818.365 881.128 818.27 880.949 818.178C879.462 817.423 877.804 816.66 875.704 816.299C874.652 816.134 873.483 816.096 872.296 816.29C871.689 816.385 871.135 816.551 870.598 816.747C870.055 816.911 869.512 817.154 868.975 817.475C867.893 818.043 866.964 818.928 866.24 819.802C865.548 820.686 865.045 821.572 864.664 822.353C863.904 823.924 863.405 825.164 862.834 825.979C862.269 826.795 861.759 827.218 860.906 827.582C858.93 828.42 857.915 828.002 857.22 827.057C856.401 825.673 856.319 824.395 857.546 822.491C858.745 820.598 860.88 818.64 863.106 816.748C865.352 814.833 867.791 812.935 870.19 810.753C872.55 808.541 875.08 806.153 876.767 802.502C877.586 800.697 878.058 798.49 877.82 796.34C877.61 794.305 876.801 791.998 875.031 790.254C871.456 786.644 865.752 786.855 862.224 788.877C858.481 790.901 856.279 793.97 854.584 796.637C852.866 799.355 851.475 801.995 849.918 804.199C848.359 806.399 846.67 807.898 844.873 808.364C843.963 808.587 843.44 808.492 843.028 808.262C842.6 808.04 842.146 807.41 842.089 806.867C842.046 806.568 842.039 806.326 842.127 805.965C842.228 805.596 842.444 805.099 842.759 804.474C843.07 803.843 843.486 803.098 843.856 802.138C844.223 801.182 844.504 799.988 844.472 798.775C844.469 798.161 844.363 797.582 844.236 797.01C844.08 796.373 843.77 795.652 843.429 795.156C842.726 794.095 841.901 793.435 841.088 792.924C839.43 791.951 837.773 791.503 835.971 791.537C835.697 791.542 835.413 791.62 835.164 791.774C834.435 792.221 834.207 793.154 834.656 793.855L834.687 793.906C835.582 795.302 836.589 796.333 837.258 797.267C837.598 797.713 837.855 798.12 837.918 798.34C837.974 798.472 837.941 798.454 837.956 798.536C837.977 798.693 838.015 798.84 838.001 798.975C838.033 799.479 837.702 800.261 836.906 801.719C836.536 802.434 836.096 803.304 835.78 804.378C835.465 805.462 835.364 806.733 835.541 807.903C835.9 810.304 837.23 812.394 839.37 813.759C841.537 815.155 844.32 815.272 846.37 814.75C848.416 814.204 850.388 813.261 851.843 811.984C853.396 810.761 854.501 809.369 855.545 808.015C857.523 805.289 858.981 802.59 860.542 800.227C862.066 797.833 863.769 795.94 865.493 795.069C865.921 794.847 866.399 794.732 866.8 794.579C867.179 794.495 867.585 794.47 867.967 794.501C868.747 794.571 869.328 794.865 869.695 795.256C870.083 795.631 870.33 796.282 870.451 797.179C870.535 797.995 870.39 798.814 869.98 799.751C869.169 801.628 867.278 803.664 865.193 805.569C863.085 807.5 860.705 809.368 858.309 811.415C855.929 813.492 853.412 815.619 851.319 818.836C850.307 820.439 849.396 822.458 849.301 824.767C849.267 825.904 849.416 827.062 849.721 828.099C850.002 829.104 850.477 830.136 851.141 831.097C852.437 833.054 854.791 834.54 857.204 834.904C858.408 835.106 859.617 835.078 860.769 834.867C861.365 834.756 861.895 834.605 862.36 834.434C862.852 834.247 863.331 834.139 863.826 833.869C865.805 833.028 867.685 831.347 868.749 829.618C869.849 827.9 870.402 826.297 870.948 825.159C871.499 823.957 871.903 823.495 872.401 823.201C873.025 822.863 873.647 822.664 874.549 822.803C875.576 822.926 876.817 823.421 878.144 824.058C878.291 825.812 879.267 827.464 880.943 828.408C882.424 829.242 885.654 830.171 888.779 829.353C889.74 829.101 890.608 828.494 891.155 827.595C891.701 826.696 891.825 825.669 891.581 824.74Z" fill="#FFBB22"/>
<path d="M698.075 961.807C699.075 958.845 698.287 955.63 697.508 954.12C696.603 952.365 694.897 951.248 693.051 950.987C692.956 950.814 692.893 950.659 692.794 950.484C691.966 949.037 691 947.488 689.443 946.032C688.655 945.317 687.7 944.643 686.601 944.154C686.041 943.899 685.487 943.733 684.931 943.603C684.387 943.441 683.8 943.346 683.175 943.32C681.958 943.199 680.696 943.429 679.611 943.762C678.547 944.12 677.64 944.584 676.893 945.027C675.395 945.923 674.297 946.685 673.372 947.052C672.451 947.423 671.793 947.498 670.88 947.332C668.768 946.948 668.15 946.041 668.088 944.869C668.164 943.263 668.798 942.15 670.869 941.233C672.911 940.31 675.77 939.847 678.669 939.488C681.598 939.121 684.679 938.875 687.882 938.37C691.069 937.818 694.495 937.212 697.91 935.087C699.586 934.029 701.192 932.444 702.175 930.516C703.117 928.701 703.708 926.329 703.187 923.899C702.183 918.919 697.3 915.961 693.242 915.714C689.002 915.349 685.477 916.704 682.595 918.001C679.667 919.329 677.054 920.771 674.543 921.758C672.031 922.74 669.796 923.064 668.038 922.467C667.155 922.153 666.771 921.787 666.553 921.368C666.318 920.948 666.284 920.172 666.535 919.687C666.663 919.413 666.79 919.207 667.062 918.954C667.349 918.701 667.802 918.405 668.408 918.055C669.015 917.699 669.772 917.305 670.609 916.706C671.44 916.109 672.331 915.265 672.97 914.233C673.305 913.72 673.535 913.178 673.743 912.63C673.963 912.011 674.099 911.239 674.087 910.637C674.082 909.364 673.755 908.359 673.356 907.486C672.506 905.763 671.367 904.477 669.843 903.516C669.61 903.37 669.33 903.279 669.038 903.271C668.183 903.244 667.481 903.898 667.47 904.731L667.468 904.79C667.449 906.449 667.724 907.863 667.771 909.012C667.809 909.57 667.801 910.052 667.732 910.27C667.707 910.412 667.689 910.378 667.656 910.455C667.588 910.597 667.539 910.741 667.453 910.846C667.203 911.285 666.497 911.757 665.031 912.538C664.33 912.932 663.483 913.418 662.629 914.142C661.771 914.874 660.989 915.881 660.494 916.956C659.475 919.16 659.438 921.636 660.477 923.953C661.521 926.309 663.783 927.936 665.782 928.626C667.792 929.293 669.957 929.588 671.875 929.32C673.844 929.151 675.532 928.596 677.148 928.037C680.298 926.846 682.999 925.391 685.602 924.274C688.19 923.111 690.653 922.464 692.573 922.683C693.051 922.733 693.515 922.899 693.934 922.992C694.296 923.13 694.649 923.332 694.951 923.568C695.565 924.054 695.889 924.62 695.981 925.148C696.099 925.674 695.947 926.354 695.556 927.17C695.179 927.898 694.607 928.503 693.75 929.061C692.041 930.184 689.342 930.846 686.554 931.293C683.732 931.748 680.717 932.002 677.59 932.396C674.461 932.825 671.189 933.22 667.673 934.759C665.947 935.542 664.076 936.729 662.729 938.606C662.076 939.538 661.565 940.588 661.25 941.621C660.932 942.616 660.763 943.738 660.789 944.906C660.797 947.254 661.948 949.789 663.765 951.418C664.66 952.248 665.686 952.889 666.764 953.345C667.323 953.58 667.849 953.745 668.332 953.857C668.846 953.971 669.305 954.144 669.867 954.19C671.983 954.575 674.477 954.202 676.316 953.342C678.179 952.511 679.521 951.475 680.602 950.824C681.723 950.122 682.315 949.958 682.892 949.986C683.599 950.046 684.228 950.222 684.906 950.833C685.696 951.5 686.462 952.595 687.22 953.857C686.38 955.403 686.288 957.32 687.171 959.029C687.95 960.539 690.138 963.09 693.2 964.123C694.141 964.44 695.2 964.41 696.15 963.959C697.1 963.507 697.768 962.718 698.075 961.807Z" fill="#FFBB22"/>
<path d="M468.741 989.595C471.279 987.77 472.512 984.697 472.758 983.016C473.044 981.062 472.309 979.161 470.96 977.873C470.984 977.677 471.023 977.515 471.045 977.315C471.215 975.656 471.332 973.835 470.914 971.745C470.689 970.704 470.306 969.6 469.698 968.562C469.391 968.029 469.037 967.571 468.661 967.141C468.313 966.693 467.892 966.274 467.399 965.888C466.48 965.082 465.321 964.533 464.244 964.172C463.171 963.843 462.164 963.692 461.298 963.617C459.559 963.472 458.222 963.452 457.257 963.212C456.292 962.977 455.714 962.654 455.068 961.988C453.576 960.445 453.601 959.348 454.233 958.36C455.231 957.098 456.394 956.563 458.612 957.024C460.809 957.463 463.403 958.752 465.969 960.149C468.563 961.557 471.211 963.152 474.108 964.607C477.021 966.015 480.158 967.517 484.172 967.78C486.15 967.896 488.379 967.543 490.301 966.549C492.124 965.622 493.986 964.039 494.978 961.76C497.063 957.127 494.817 951.879 491.662 949.313C488.428 946.548 484.774 945.595 481.676 944.971C478.522 944.345 475.558 943.994 472.942 943.334C470.329 942.669 468.323 941.631 467.243 940.121C466.707 939.352 466.608 938.831 466.675 938.363C466.729 937.884 467.154 937.234 467.64 936.986C467.904 936.838 468.126 936.744 468.495 936.697C468.876 936.659 469.416 936.682 470.113 936.751C470.814 936.815 471.659 936.936 472.688 936.936C473.711 936.935 474.927 936.768 476.048 936.302C476.619 936.079 477.121 935.773 477.609 935.448C478.149 935.074 478.709 934.526 479.05 934.029C479.788 932.991 480.107 931.984 480.292 931.042C480.604 929.146 480.427 927.438 479.748 925.769C479.645 925.515 479.47 925.278 479.237 925.1C478.558 924.581 477.606 924.704 477.113 925.374L477.076 925.421C476.095 926.758 475.494 928.068 474.863 929.029C474.569 929.505 474.282 929.892 474.098 930.029C473.996 930.13 474 930.092 473.929 930.136C473.791 930.211 473.667 930.299 473.536 930.335C473.077 930.546 472.229 930.518 470.582 930.299C469.782 930.211 468.811 930.112 467.696 930.204C466.571 930.299 465.349 930.661 464.32 931.248C462.209 932.445 460.736 934.436 460.231 936.925C459.707 939.448 460.598 942.088 461.821 943.813C463.066 945.526 464.654 947.027 466.369 947.927C468.068 948.936 469.763 949.468 471.402 949.955C474.657 950.822 477.7 951.213 480.466 951.821C483.247 952.384 485.626 953.292 487.058 954.589C487.419 954.908 487.698 955.313 487.985 955.633C488.199 955.956 488.369 956.325 488.477 956.693C488.692 957.446 488.626 958.095 488.393 958.578C488.183 959.074 487.663 959.538 486.87 959.974C486.139 960.345 485.322 960.504 484.301 960.458C482.257 960.376 479.678 959.342 477.151 958.081C474.592 956.807 471.994 955.257 469.223 953.756C466.429 952.282 463.539 950.697 459.786 949.9C457.926 949.531 455.714 949.406 453.526 950.147C452.452 950.524 451.425 951.079 450.567 951.736C449.73 952.359 448.938 953.173 448.279 954.138C446.918 956.051 446.377 958.781 446.904 961.164C447.149 962.36 447.609 963.479 448.22 964.478C448.538 964.994 448.869 965.434 449.196 965.807C449.547 966.199 449.82 966.607 450.249 966.972C451.746 968.517 453.99 969.667 455.985 970.039C457.984 970.448 459.678 970.389 460.936 970.489C462.256 970.572 462.833 970.783 463.286 971.142C463.825 971.603 464.235 972.112 464.429 973.004C464.683 974.006 464.668 975.342 464.549 976.809C462.966 977.577 461.774 979.082 461.496 980.985C461.25 982.666 461.543 986.014 463.429 988.637C464.009 989.443 464.888 990.035 465.923 990.222C466.958 990.409 467.961 990.156 468.741 989.595Z" fill="#FFBB22"/>
<path d="M243.243 886.14C246.362 886.363 249.276 884.792 250.541 883.657C252.011 882.34 252.663 880.408 252.451 878.555C252.596 878.42 252.729 878.32 252.874 878.181C254.066 877.015 255.322 875.691 256.339 873.818C256.833 872.874 257.245 871.78 257.442 870.594C257.548 869.988 257.569 869.41 257.555 868.839C257.575 868.272 257.519 867.68 257.387 867.068C257.198 865.86 256.658 864.697 256.062 863.73C255.448 862.79 254.771 862.03 254.154 861.418C252.911 860.193 251.897 859.322 251.308 858.52C250.718 857.722 250.48 857.103 250.41 856.178C250.251 854.038 250.974 853.211 252.092 852.857C253.665 852.526 254.902 852.86 256.311 854.634C257.718 856.377 258.886 859.028 259.962 861.743C261.054 864.486 262.068 867.406 263.362 870.379C264.698 873.324 266.147 876.487 269.063 879.258C270.508 880.614 272.447 881.77 274.559 882.235C276.554 882.691 278.998 882.666 281.219 881.55C285.786 879.325 287.419 873.856 286.638 869.865C285.924 865.671 283.726 862.599 281.745 860.137C279.723 857.637 277.671 855.47 276.084 853.288C274.501 851.105 273.625 849.024 273.761 847.172C273.842 846.238 274.1 845.774 274.45 845.458C274.798 845.124 275.541 844.897 276.073 845.017C276.37 845.073 276.601 845.143 276.915 845.343C277.232 845.557 277.633 845.921 278.124 846.42C278.621 846.917 279.193 847.551 279.984 848.21C280.771 848.864 281.811 849.515 282.97 849.874C283.552 850.069 284.134 850.154 284.717 850.218C285.371 850.275 286.153 850.213 286.732 850.049C287.963 849.724 288.853 849.155 289.598 848.549C291.052 847.293 292.009 845.867 292.556 844.15C292.639 843.888 292.656 843.595 292.591 843.309C292.402 842.475 291.592 841.96 290.784 842.16L290.726 842.172C289.116 842.572 287.816 843.193 286.716 843.527C286.185 843.706 285.717 843.819 285.488 843.807C285.345 843.818 285.373 843.792 285.29 843.78C285.135 843.75 284.984 843.738 284.86 843.682C284.372 843.55 283.739 842.986 282.614 841.763C282.056 841.183 281.373 840.486 280.457 839.842C279.532 839.195 278.362 838.692 277.196 838.484C274.807 838.052 272.401 838.639 270.42 840.228C268.403 841.831 267.397 844.429 267.232 846.538C267.092 848.651 267.351 850.82 268.093 852.609C268.752 854.472 269.715 855.966 270.662 857.39C272.608 860.139 274.695 862.387 276.431 864.625C278.208 866.838 279.453 869.058 279.724 870.971C279.797 871.447 279.752 871.938 279.768 872.366C279.726 872.752 279.619 873.144 279.467 873.496C279.151 874.212 278.684 874.668 278.196 874.89C277.717 875.137 277.021 875.161 276.133 874.988C275.333 874.806 274.604 874.404 273.848 873.716C272.331 872.344 271.011 869.899 269.877 867.313C268.727 864.696 267.722 861.842 266.554 858.915C265.352 855.994 264.146 852.926 261.773 849.911C260.58 848.437 258.961 846.926 256.805 846.094C255.739 845.697 254.594 845.466 253.515 845.421C252.472 845.364 251.343 845.483 250.219 845.802C247.949 846.4 245.786 848.152 244.666 850.32C244.088 851.395 243.726 852.549 243.555 853.708C243.469 854.308 243.442 854.858 243.454 855.354C243.473 855.88 243.422 856.368 243.518 856.923C243.678 859.068 244.666 861.388 245.961 862.951C247.235 864.545 248.575 865.584 249.477 866.466C250.438 867.375 250.746 867.906 250.864 868.472C250.984 869.171 250.972 869.824 250.551 870.634C250.104 871.567 249.237 872.583 248.207 873.634C246.499 873.211 244.621 873.604 243.188 874.888C241.923 876.022 240.005 878.782 239.776 882.005C239.705 882.995 240.001 884.013 240.677 884.819C241.353 885.625 242.285 886.072 243.243 886.14Z" fill="#FFBB22"/>
<path d="M127.091 705.938C130.083 706.845 133.273 705.958 134.758 705.132C136.483 704.173 137.547 702.433 137.75 700.58C137.921 700.48 138.073 700.412 138.245 700.308C139.666 699.435 141.184 698.422 142.59 696.82C143.28 696.01 143.924 695.034 144.379 693.92C144.617 693.353 144.765 692.794 144.878 692.234C145.022 691.686 145.1 691.096 145.107 690.47C145.189 689.25 144.92 687.996 144.553 686.922C144.162 685.869 143.67 684.977 143.204 684.244C142.263 682.775 141.467 681.701 141.07 680.788C140.671 679.879 140.576 679.223 140.713 678.306C141.032 676.183 141.919 675.537 143.088 675.439C144.696 675.465 145.828 676.064 146.809 678.106C147.795 680.117 148.347 682.961 148.796 685.847C149.254 688.763 149.596 691.835 150.2 695.021C150.851 698.19 151.564 701.595 153.794 704.942C154.903 706.584 156.538 708.141 158.495 709.062C160.339 709.948 162.728 710.465 165.141 709.868C170.087 708.71 172.891 703.737 173.012 699.673C173.244 695.424 171.781 691.942 170.394 689.103C168.976 686.217 167.454 683.65 166.389 681.171C165.329 678.691 164.936 676.468 165.478 674.692C165.764 673.8 166.118 673.404 166.53 673.173C166.943 672.925 167.717 672.867 168.21 673.102C168.487 673.222 168.697 673.342 168.959 673.606C169.221 673.886 169.531 674.329 169.899 674.924C170.274 675.52 170.691 676.264 171.317 677.082C171.939 677.894 172.81 678.759 173.861 679.366C174.385 679.684 174.934 679.897 175.488 680.087C176.113 680.288 176.889 680.401 177.491 680.369C178.763 680.325 179.757 679.967 180.617 679.541C182.313 678.637 183.563 677.459 184.476 675.906C184.615 675.669 184.697 675.386 184.696 675.094C184.696 674.238 184.02 673.557 183.188 673.572L183.129 673.572C181.47 673.605 180.065 673.923 178.918 674.006C178.361 674.062 177.88 674.069 177.659 674.006C177.517 673.986 177.55 673.967 177.472 673.936C177.328 673.873 177.183 673.828 177.075 673.746C176.628 673.509 176.135 672.818 175.309 671.377C174.893 670.688 174.381 669.857 173.631 669.027C172.872 668.191 171.842 667.441 170.751 666.98C168.517 666.03 166.041 666.07 163.757 667.181C161.435 668.297 159.879 670.608 159.252 672.629C158.647 674.658 158.42 676.831 158.747 678.74C158.978 680.703 159.585 682.372 160.194 683.97C161.483 687.082 163.021 689.737 164.218 692.303C165.461 694.854 166.184 697.295 166.025 699.221C165.991 699.701 165.839 700.169 165.759 700.591C165.632 700.958 165.442 701.317 165.215 701.626C164.748 702.254 164.193 702.596 163.668 702.704C163.146 702.839 162.461 702.709 161.634 702.343C160.894 701.988 160.272 701.435 159.688 700.597C158.512 698.923 157.766 696.246 157.232 693.474C156.69 690.667 156.342 687.662 155.851 684.548C155.325 681.434 154.828 678.175 153.181 674.709C152.344 673.008 151.099 671.176 149.182 669.888C148.23 669.264 147.165 668.785 146.122 668.503C145.118 668.216 143.99 668.082 142.824 668.145C140.478 668.226 137.98 669.455 136.408 671.321C135.606 672.242 134.998 673.287 134.575 674.379C134.358 674.946 134.21 675.476 134.112 675.962C134.014 676.479 133.856 676.944 133.827 677.506C133.509 679.634 133.958 682.115 134.875 683.926C135.764 685.762 136.841 687.072 137.526 688.132C138.262 689.231 138.444 689.817 138.435 690.395C138.396 691.103 138.241 691.738 137.65 692.434C137.008 693.245 135.938 694.044 134.701 694.841C133.128 694.05 131.21 694.018 129.529 694.953C128.044 695.779 125.563 698.045 124.625 701.137C124.337 702.088 124.401 703.145 124.881 704.081C125.362 705.017 126.172 705.659 127.091 705.938Z" fill="#FFBB22"/>
<path d="M95.1413 476.858C97.3416 479.079 100.569 479.816 102.268 479.795C104.243 479.772 106.005 478.748 107.066 477.214C107.263 477.207 107.43 477.22 107.631 477.21C109.295 477.118 111.113 476.948 113.112 476.208C114.104 475.824 115.135 475.272 116.065 474.509C116.543 474.122 116.939 473.701 117.305 473.262C117.693 472.849 118.041 472.367 118.345 471.819C118.998 470.785 119.358 469.554 119.546 468.435C119.703 467.323 119.694 466.305 119.633 465.438C119.503 463.697 119.314 462.374 119.399 461.383C119.48 460.394 119.709 459.772 120.265 459.03C121.555 457.314 122.643 457.167 123.718 457.637C125.12 458.424 125.831 459.489 125.723 461.752C125.634 463.991 124.767 466.755 123.789 469.508C122.805 472.29 121.645 475.155 120.661 478.245C119.727 481.342 118.735 484.676 119.104 488.682C119.299 490.653 119.997 492.8 121.28 494.542C122.481 496.198 124.337 497.789 126.743 498.411C131.645 499.745 136.476 496.704 138.516 493.187C140.741 489.559 141.109 485.8 141.24 482.643C141.365 479.43 141.247 476.448 141.489 473.761C141.736 471.075 142.447 468.932 143.769 467.628C144.445 466.979 144.945 466.8 145.417 466.793C145.898 466.77 146.607 467.088 146.928 467.529C147.115 467.767 147.243 467.972 147.348 468.329C147.445 468.699 147.507 469.236 147.548 469.935C147.594 470.637 147.607 471.491 147.769 472.507C147.93 473.518 148.285 474.693 148.921 475.726C149.23 476.256 149.612 476.704 150.009 477.135C150.463 477.609 151.092 478.077 151.636 478.336C152.777 478.902 153.821 479.059 154.781 479.094C156.702 479.105 158.362 478.663 159.903 477.731C160.139 477.589 160.345 477.379 160.484 477.121C160.891 476.369 160.62 475.448 159.881 475.066L159.829 475.037C158.354 474.278 156.966 473.889 155.919 473.417C155.402 473.201 154.975 472.978 154.811 472.818C154.696 472.733 154.733 472.731 154.679 472.668C154.583 472.543 154.476 472.435 154.42 472.311C154.14 471.89 154.035 471.048 153.993 469.388C153.955 468.584 153.9 467.609 153.635 466.522C153.365 465.426 152.816 464.276 152.076 463.352C150.562 461.454 148.365 460.311 145.828 460.202C143.254 460.08 140.786 461.373 139.273 462.852C137.777 464.35 136.543 466.153 135.923 467.988C135.192 469.824 134.933 471.582 134.708 473.277C134.362 476.628 134.453 479.694 134.285 482.521C134.165 485.356 133.641 487.848 132.585 489.466C132.326 489.872 131.97 490.212 131.699 490.544C131.413 490.807 131.075 491.032 130.728 491.197C130.019 491.527 129.368 491.563 128.854 491.409C128.331 491.279 127.791 490.839 127.237 490.123C126.755 489.46 126.47 488.678 126.356 487.662C126.117 485.631 126.734 482.921 127.583 480.228C128.441 477.501 129.564 474.692 130.613 471.72C131.632 468.73 132.744 465.628 132.944 461.795C133.016 459.901 132.793 457.697 131.718 455.652C131.178 454.65 130.469 453.723 129.686 452.978C128.939 452.249 128.011 451.594 126.955 451.095C124.852 450.05 122.071 449.943 119.8 450.838C118.657 451.266 117.625 451.896 116.733 452.656C116.273 453.051 115.89 453.447 115.574 453.828C115.241 454.237 114.881 454.57 114.588 455.051C113.296 456.771 112.512 459.168 112.457 461.197C112.366 463.235 112.691 464.899 112.788 466.157C112.913 467.474 112.795 468.076 112.512 468.58C112.141 469.185 111.703 469.669 110.852 470.001C109.902 470.409 108.58 470.603 107.112 470.716C106.106 469.272 104.433 468.331 102.51 468.354C100.811 468.374 97.5503 469.188 95.2552 471.462C94.5499 472.161 94.1025 473.122 94.0802 474.174C94.0581 475.225 94.4651 476.176 95.1413 476.858Z" fill="#FFBB22"/>
<path d="M191.574 265.904C192.469 268.899 194.968 271.07 196.477 271.853C198.229 272.762 200.267 272.689 201.925 271.836C202.102 271.923 202.243 272.012 202.425 272.098C203.936 272.802 205.619 273.508 207.731 273.797C208.788 273.925 209.957 273.924 211.137 273.689C211.741 273.574 212.289 273.389 212.818 273.174C213.355 272.992 213.889 272.731 214.415 272.391C215.478 271.787 216.375 270.871 217.069 269.972C217.731 269.065 218.203 268.163 218.557 267.369C219.263 265.773 219.72 264.517 220.262 263.683C220.799 262.848 221.294 262.407 222.135 262.015C224.081 261.11 225.11 261.493 225.836 262.413C226.702 263.768 226.827 265.043 225.666 266.988C224.533 268.921 222.466 270.95 220.306 272.917C218.127 274.908 215.754 276.889 213.431 279.151C211.148 281.442 208.701 283.916 207.14 287.623C206.383 289.454 205.987 291.676 206.298 293.817C206.578 295.843 207.465 298.121 209.294 299.804C212.99 303.289 218.684 302.884 222.14 300.742C225.812 298.591 227.907 295.449 229.511 292.725C231.134 289.95 232.435 287.264 233.915 285.008C235.398 282.756 237.035 281.201 238.815 280.673C239.717 280.419 240.242 280.496 240.662 280.712C241.097 280.919 241.573 281.534 241.649 282.074C241.701 282.372 241.717 282.613 241.642 282.977C241.553 283.349 241.355 283.853 241.061 284.488C240.772 285.13 240.381 285.888 240.044 286.861C239.71 287.828 239.47 289.032 239.544 290.243C239.567 290.856 239.693 291.431 239.84 291.998C240.017 292.63 240.352 293.34 240.71 293.824C241.449 294.861 242.296 295.491 243.126 295.974C244.816 296.89 246.488 297.282 248.287 297.186C248.561 297.171 248.842 297.084 249.086 296.922C249.799 296.45 249.994 295.51 249.522 294.825L249.49 294.775C248.547 293.41 247.506 292.413 246.805 291.503C246.45 291.069 246.179 290.672 246.109 290.453C246.048 290.324 246.082 290.34 246.064 290.258C246.038 290.103 245.995 289.957 246.004 289.822C245.955 289.319 246.259 288.526 247.005 287.042C247.349 286.315 247.76 285.43 248.039 284.346C248.317 283.251 248.374 281.979 248.157 280.815C247.716 278.428 246.316 276.385 244.13 275.093C241.917 273.773 239.131 273.751 237.1 274.342C235.074 274.958 233.136 275.968 231.725 277.294C230.215 278.569 229.158 279.997 228.162 281.387C226.278 284.179 224.913 286.926 223.433 289.341C221.992 291.786 220.355 293.736 218.661 294.666C218.242 294.902 217.767 295.034 217.372 295.2C216.996 295.297 216.592 295.336 216.208 295.318C215.427 295.275 214.836 295 214.455 294.622C214.055 294.261 213.786 293.618 213.634 292.726C213.522 291.914 213.639 291.09 214.017 290.14C214.763 288.236 216.584 286.136 218.602 284.161C220.643 282.16 222.958 280.211 225.283 278.084C227.59 275.926 230.033 273.714 232.015 270.428C232.971 268.791 233.813 266.742 233.829 264.431C233.824 263.293 233.635 262.141 233.295 261.116C232.98 260.12 232.47 259.106 231.774 258.168C230.411 256.256 228.008 254.851 225.584 254.57C224.374 254.41 223.166 254.479 222.022 254.729C221.43 254.86 220.906 255.03 220.447 255.217C219.961 255.42 219.487 255.545 219.001 255.831C217.052 256.739 215.23 258.484 214.226 260.248C213.186 262.003 212.688 263.623 212.181 264.779C211.671 266 211.283 266.475 210.796 266.786C210.184 267.145 209.569 267.365 208.663 267.258C207.632 267.169 206.375 266.718 205.027 266.126C204.82 264.378 203.788 262.76 202.08 261.874C200.572 261.092 197.313 260.274 194.217 261.198C193.265 261.482 192.418 262.119 191.903 263.036C191.388 263.953 191.299 264.983 191.574 265.904Z" fill="#FFBB22"/>
<path d="M363.412 389.431L282.938 419.869L310.458 499.092L252.5 570.392L317.963 627.933L302.535 714.661L390.931 734.675L421.369 812.23L500.175 787.629L573.143 841L629.433 777.205L717.829 787.629L731.171 702.569L814.981 672.131L787.461 591.657L842.5 521.608L774.118 460.731L787.461 377.339L706.988 360.661L671.963 278.519L586.903 302.703L520.189 251L466.818 316.463L378.839 302.703L363.412 389.431Z" fill="#0D0D0D"/>
<circle cx="1004.5" cy="415" r="20" fill="#C14333"/>
<circle cx="930.5" cy="266" r="20" fill="#C14333"/>
<circle cx="811.5" cy="149" r="20" fill="#C14333"/>
<circle cx="660.5" cy="82" r="20" fill="#C14333"/>
<circle cx="493.5" cy="69" r="20" fill="#C14333"/>
<circle cx="331.5" cy="115" r="20" fill="#C14333"/>
<circle cx="200.5" cy="209" r="20" fill="#C14333"/>
<circle cx="105.5" cy="347" r="20" fill="#C14333"/>
<circle cx="69.5" cy="505" r="20" fill="#C14333"/>
<circle cx="84.5" cy="672" r="20" fill="#C14333"/>
<circle cx="154.5" cy="821" r="20" fill="#C14333"/>
<circle cx="272.5" cy="937" r="20" fill="#C14333"/>
<circle cx="418.5" cy="1006" r="20" fill="#C14333"/>
<circle cx="583.5" cy="1019" r="20" fill="#C14333"/>
<circle cx="743.5" cy="977" r="20" fill="#C14333"/>
<circle cx="873.5" cy="886" r="20" fill="#C14333"/>
<circle cx="969.5" cy="752" r="20" fill="#C14333"/>
<circle cx="1021.5" cy="584" r="20" fill="#C14333"/>
<path d="M268.096 313.672L150.051 361.155L190.211 480.472L110.5 580.308L205.423 665.534L185.343 790.938L311.299 817.723L357.543 936.431L477.414 896.862L576.596 976L662.392 881.034L788.347 899.297L813.295 775.11L931.34 728.236L891.789 608.919L971.5 509.083L876.577 423.857L895.44 298.453L771.918 272.886L724.457 153.569L605.195 193.747L504.795 114L420.825 208.966L294.87 190.095L268.096 313.672Z" fill="#FFBB22"/>
<path d="M294.708 338.667L189.687 380.917L225.416 487.083L154.5 575.917L238.949 651.75L221.085 763.333L333.143 787.167L374.285 892.792L480.93 857.583L569.169 928L645.498 843.5L757.556 859.75L779.751 749.25L884.771 707.542L849.584 601.375L920.5 512.542L836.05 436.708L852.832 325.125L742.94 302.375L700.715 196.208L594.612 231.958L505.29 161L430.585 245.5L318.527 228.708L294.708 338.667Z" fill="black"/>
<path d="M671.925 153.613L680.117 137.573L679.66 149.749L689.713 156.449L671.925 153.613Z" fill="#204D28"/>
<path d="M681.888 148.603L682.43 136.637L702.236 138.411L692.236 155.428L681.888 148.603Z" fill="#204D28"/>
<path d="M833.65 269.477L849.619 261.146L842.194 270.807L846.508 282.091L833.65 269.477Z" fill="#204D28"/>
<path d="M844.674 271.163L852.047 261.723L867.165 274.641L849.157 282.72L844.674 271.163Z" fill="#204D28"/>
<path d="M928.091 450.059L946.055 448.749L935.406 454.67L934.889 466.74L928.091 450.059Z" fill="#204D28"/>
<path d="M937.542 455.981L948.055 450.241L956.806 468.098L937.07 468.369L937.542 455.981Z" fill="#204D28"/>
<path d="M927.23 664.186L943.066 672.767L930.905 672.014L923.962 681.9L927.23 664.186Z" fill="#204D28"/>
<path d="M931.996 674.269L943.945 675.103L941.689 694.859L924.921 684.448L931.996 674.269Z" fill="#204D28"/>
<path d="M816.515 830.611L825.775 846.059L815.692 839.219L804.683 844.193L816.515 830.611Z" fill="#204D28"/>
<path d="M815.483 841.716L825.343 848.517L813.342 864.372L804.211 846.874L815.483 841.716Z" fill="#204D28"/>
<path d="M640.521 928.405L639.701 946.398L635.078 935.124L623.154 933.185L640.521 928.405Z" fill="#204D28"/>
<path d="M633.524 937.09L637.983 948.207L619.218 954.789L621.279 935.159L633.524 937.09Z" fill="#204D28"/>
<path d="M428.893 931.248L418.514 945.968L420.688 933.979L411.684 925.925L428.893 931.248Z" fill="#204D28"/>
<path d="M418.321 934.799L416.092 946.568L396.736 942.01L409.042 926.579L418.321 934.799Z" fill="#204D28"/>
<path d="M245.07 820.531L229.192 829.032L236.513 819.292L232.077 808.055L245.07 820.531Z" fill="#204D28"/>
<path d="M234.029 818.963L226.758 828.482L211.502 815.727L229.422 807.454L234.029 818.963Z" fill="#204D28"/>
<path d="M153.754 638.884L135.815 640.5L146.361 634.398L146.674 622.321L153.754 638.884Z" fill="#204D28"/>
<path d="M144.204 633.123L133.79 639.041L124.737 621.336L144.465 620.73L144.204 633.123Z" fill="#204D28"/>
<path d="M151.759 427.137L136.351 417.809L148.462 419.142L155.87 409.599L151.759 427.137Z" fill="#204D28"/>
<path d="M147.48 416.838L135.584 415.434L138.782 395.808L155.033 407.009L147.48 416.838Z" fill="#204D28"/>
<path d="M263.844 253.74L256.233 237.415L265.554 245.264L277.019 241.457L263.844 253.74Z" fill="#204D28"/>
<path d="M266.02 242.802L256.918 235.016L270.497 220.489L277.766 238.839L266.02 242.802Z" fill="#204D28"/>
<path d="M452.213 149.526L450.223 131.625L456.544 142.042L468.625 142.101L452.213 149.526Z" fill="#204D28"/>
<path d="M457.773 139.858L451.639 129.57L469.151 120.149L470.169 139.86L457.773 139.858Z" fill="#204D28"/>
<path d="M816.515 830.611L825.775 846.059L815.692 839.219L804.683 844.193L816.515 830.611Z" fill="#204D28"/>
<path d="M815.483 841.716L825.343 848.517L813.342 864.372L804.211 846.874L815.483 841.716Z" fill="#204D28"/>
<path d="M564.501 130.544L546.493 130.188L557.644 125.276L559.275 113.306L564.501 130.544Z" fill="#204D28"/>
<path d="M555.639 123.773L544.64 128.517L537.577 109.929L557.253 111.483L555.639 123.773Z" fill="#204D28"/>
<path d="M364.458 182.635L347.682 189.193L356.107 180.39L353.037 168.706L364.458 182.635Z" fill="#204D28"/>
<path d="M353.68 179.768L345.331 188.357L331.697 173.882L350.472 167.795L353.68 179.768Z" fill="#204D28"/>
<path d="M200.94 323.273L189.595 337.262L192.57 325.446L184.128 316.805L200.94 323.273Z" fill="#204D28"/>
<path d="M190.153 326.105L187.138 337.697L168.132 331.848L181.448 317.28L190.153 326.105Z" fill="#204D28"/>
<path d="M136.493 517.898L134.58 535.808L130.651 524.274L118.867 521.613L136.493 517.898Z" fill="#204D28"/>
<path d="M128.981 526.141L132.754 537.509L113.624 542.937L116.876 523.469L128.981 526.141Z" fill="#204D28"/>
<path d="M177.679 727.685L185.104 744.095L175.873 736.142L164.365 739.818L177.679 727.685Z" fill="#204D28"/>
<path d="M175.379 738.598L184.392 746.487L170.648 760.859L163.589 742.427L175.379 738.598Z" fill="#204D28"/>
<path d="M309.044 869.51L324.455 878.832L312.344 877.503L304.94 887.049L309.044 869.51Z" fill="#204D28"/>
<path d="M313.327 879.807L325.223 881.206L322.033 900.834L305.778 889.639L313.327 879.807Z" fill="#204D28"/>
<path d="M514.425 951.151L532.436 951.3L521.343 956.339L519.849 968.327L514.425 951.151Z" fill="#204D28"/>
<path d="M523.365 957.819L534.308 952.95L541.584 971.456L521.891 970.127L523.365 957.819Z" fill="#204D28"/>
<path d="M716.244 906.976L731.361 897.185L724.875 907.499L730.228 918.329L716.244 906.976Z" fill="#204D28"/>
<path d="M727.378 907.621L733.833 897.531L750.095 908.975L732.924 918.707L727.378 907.621Z" fill="#204D28"/>
<path d="M875.558 764.946L886.045 750.302L883.782 762.275L892.727 770.396L875.558 764.946Z" fill="#204D28"/>
<path d="M886.156 761.473L888.471 749.721L907.793 754.421L895.374 769.761L886.156 761.473Z" fill="#204D28"/>
<path d="M945.516 573.391L944.655 555.4L950.308 566.193L962.361 567.012L945.516 573.391Z" fill="#204D28"/>
<path d="M951.672 564.091L946.197 553.438L964.267 545.136L964.044 564.872L951.672 564.091Z" fill="#204D28"/>
<path d="M901.157 365.209L891.586 349.951L901.805 356.586L912.712 351.391L901.157 365.209Z" fill="#204D28"/>
<path d="M901.964 354.086L891.968 347.485L903.647 331.391L913.129 348.701L901.964 354.086Z" fill="#204D28"/>
<path d="M764.433 212.771L748.296 204.77L760.477 205.082L767.056 194.95L764.433 212.771Z" fill="#204D28"/>
<path d="M759.304 202.867L747.333 202.469L748.87 182.643L766.005 192.439L759.304 202.867Z" fill="#204D28"/>
<defs>
<clipPath id="clip0_12_413">
<rect width="50" height="50" fill="white" transform="translate(367.5 164.963) rotate(-69.9266)"/>
</clipPath>
<clipPath id="clip1_12_413">
<rect width="50" height="50" fill="white" transform="translate(579.5 132.773) rotate(-35.1318)"/>
</clipPath>
<clipPath id="clip2_12_413">
<rect width="50" height="50" fill="white" transform="translate(782.5 205.391) rotate(-8.50039)"/>
</clipPath>
<clipPath id="clip3_12_413">
<rect width="50" height="50" fill="white" transform="translate(910.334 372) rotate(17.2586)"/>
</clipPath>
<clipPath id="clip4_12_413">
<rect width="50" height="50" fill="white" transform="translate(959.048 584) rotate(50.4405)"/>
</clipPath>
</defs>
</svg>
