<svg width="128" height="37" viewBox="0 0 128 37" fill="none" xmlns="http://www.w3.org/2000/svg">
<path d="M107.947 32.7829C109.477 32.7937 110.893 32.4254 111.971 31.7067C113.017 31.0097 113.584 30.0775 113.636 29.0625C114.53 29.0181 115.374 28.8478 116.113 28.5526C117.87 27.8508 118.894 26.5647 119.16 24.729C119.229 24.4399 120.139 21.0782 124.819 19.8089L127.467 19.0902C128.176 18.8971 128.179 18.2385 127.469 18.0453L124.825 17.3207C120.152 16.0417 119.262 12.7029 119.189 12.3873C118.933 10.5517 117.914 9.26321 116.161 8.55774C115.423 8.2602 114.58 8.08866 113.687 8.04185C113.639 7.02686 113.078 6.09349 112.035 5.39403C110.959 4.67299 109.544 4.30227 108.015 4.30947C106.942 1.66285 103.376 0.0791892 100.066 0.07559L95.1092 0.0707908L28.0253 6.14977e-06C24.7153 -0.00359307 21.1418 1.57286 20.0549 4.21709C18.5253 4.2075 17.1091 4.57461 16.0295 5.29326C14.9829 5.9903 14.4157 6.92249 14.3644 7.93747C13.4697 7.98187 12.6262 8.15223 11.8869 8.44736C10.1304 9.14922 9.10574 10.4342 8.84044 12.2685C8.75809 12.6105 7.84137 15.9265 3.18102 17.1911L0.533374 17.9097C-0.17657 18.1029 -0.1784 18.7616 0.531544 18.9547L3.17553 19.6793C7.84872 20.9583 8.73799 24.2971 8.81114 24.6115C9.06734 26.4471 10.0865 27.7356 11.8394 28.441C12.5768 28.7386 13.4203 28.9101 14.3132 28.9569C14.3608 29.9719 14.9225 30.9053 15.9655 31.6048C17.0414 32.3258 18.4558 32.6965 19.9854 32.6893C21.0577 35.3371 24.6238 36.9196 27.9339 36.9232L95.0198 36.994L97.0909 36.9964L99.9768 37C103.287 37.0036 106.86 35.4271 107.945 32.7829H107.947Z" fill="#EE7D32"/>
</svg>
